<svg width="609" height="571" viewBox="0 0 609 571" fill="none" xmlns="http://www.w3.org/2000/svg">
<path d="M258.813 447.265C251.774 410.926 277.878 327.926 291.81 290.968C296.454 293.166 335.317 285.596 347.783 267.524C357.756 253.067 374.692 247.388 382.98 244.812C393.979 241.393 412.311 241.881 415.732 250.185L419.398 258.732C431.375 293.166 420.946 345.509 413.532 368.872L386.157 373.757C365.43 340.153 376.055 299.19 383.958 282.909C375.549 294.241 351.938 306.191 341.184 310.749C340.695 340.788 294.743 444.334 284.722 450.928C276.705 456.203 264.109 450.684 258.813 447.265Z" fill="#56B059"/>
<path d="M276.368 453.25L272.945 459.469M262.188 449.308L255.658 466.551L255.099 468.029C254.477 469.522 254.046 472.026 255.099 474.159C255.84 475.663 257.319 476.983 259.988 477.636C266.442 479.212 290.71 480.92 302.038 481.577C303.994 481.823 307.71 480.887 306.927 475.172C306.145 469.457 302.038 464.228 297.393 462.117C293.625 460.405 283.909 457.748 272.945 459.469L262.188 449.308ZM269.522 460.146C270.673 459.871 271.816 459.647 272.945 459.469L269.522 460.146Z" stroke="#69AB67" stroke-width="5" stroke-linecap="round"/>
<path d="M390.057 372.431C389.812 379.677 390.472 393.943 392.262 396.125C394.468 398.812 397.164 399.055 413.581 393.926C426.716 389.822 431.96 389.773 435.146 389.285C437.351 388.947 440.047 388.65 440.047 383.179C440.047 376.339 437.351 371.698 429.019 370.721C422.354 369.939 412.847 373.978 408.926 376.095V369.5" stroke="#69AB67" stroke-width="5" stroke-linecap="round"/>
<path d="M358.695 126.568C333.523 129.112 284.059 139.834 287.579 162.369C288.118 164.282 289.668 167.335 292.558 170.207C295.341 172.973 299.367 175.572 304.93 176.821" stroke="#69AB67" stroke-width="5" stroke-linecap="round"/>
<path d="M292.557 170.208C300.428 182.455 323.502 209.057 352.829 217.483" stroke="#69AB67" stroke-width="5" stroke-linecap="round"/>
<path d="M352.639 217.483C354.431 215.074 359.142 210.722 364.673 210.515" stroke="#69AB67" stroke-width="5" stroke-linecap="round"/>
<path d="M364.674 210.515C364.511 203.638 358.709 185.901 336.805 169.977" stroke="#69AB67" stroke-width="5" stroke-linecap="round"/>
<path d="M330.471 175.679C332.744 171.998 339.728 164.184 349.473 162.377" stroke="#69AB67" stroke-width="5" stroke-linecap="round"/>
<path d="M384.943 168.71C385.999 169.958 388.11 173.352 388.11 176.945" stroke="#69AB67" stroke-width="5" stroke-linecap="round"/>
<path d="M384.694 221.29C389.686 221.046 400.11 220.314 401.878 219.337C404.088 218.117 404.578 218.117 404.578 215.676C404.578 213.236 384.694 217.385 384.694 209.575C386.495 207.785 389.408 203.766 386.658 202.008C383.909 200.251 378.148 205.344 375.612 208.11C372.993 210.876 367.118 215.237 364.564 210.551" stroke="#69AB67" stroke-width="5" stroke-linecap="round"/>
<path d="M353.271 217.385C355.481 223.813 363.434 235.349 377.574 230.077C391.714 224.805 392.303 222.023 390.83 221.29" stroke="#69AB67" stroke-width="5" stroke-linecap="round"/>
<path d="M475.051 220.12C478.487 219.181 485.997 214.812 488.55 204.849C491.103 194.886 487.65 194.837 485.605 196.058" stroke="#69AB67" stroke-width="5" stroke-linecap="round"/>
<path d="M462.287 212.908C463.351 207.372 467.098 196.693 473.578 198.256" stroke="#69AB67" stroke-width="5" stroke-linecap="round"/>
<path d="M464.988 203.872C460.472 200.161 457.706 208.675 456.888 213.396C451.783 214.959 449.852 222.35 449.525 225.85C461.339 227.062 469.734 223.889 475.051 220.12C478.306 217.813 480.407 215.282 481.432 213.396C483.969 206.64 487.666 192.542 482.168 190.198C476.671 187.853 475.133 193.128 475.051 196.058C475.64 202.7 472.187 210.059 470.388 212.908" stroke="#69AB67" stroke-width="5" stroke-linecap="round"/>
<path d="M393.809 221.211C404.444 231.141 430.477 245.972 449.523 225.85" stroke="#69AB67" stroke-width="5" stroke-linecap="round"/>
<path d="M391.91 222.55C391.91 227.16 390.769 237.669 386.209 242.819" stroke="#69AB67" stroke-width="5" stroke-linecap="round"/>
<path d="M292.467 233.318C282.43 246.867 268.377 277.489 292.467 291.591" stroke="#69AB67" stroke-width="5" stroke-linecap="round"/>
<path d="M592.699 175.045L598.4 165.544" stroke="#69AB67" stroke-width="5" stroke-linecap="round"/>
<path d="M595.486 180.011L606.001 179.522" stroke="#69AB67" stroke-width="5" stroke-linecap="round"/>
<path d="M593.332 185.813L599.666 194.047" stroke="#69AB67" stroke-width="5" stroke-linecap="round"/>
<path d="M386.286 484.15H215.191V567.755" stroke="#81DA80" stroke-width="5" stroke-linecap="round"/>
<path d="M505.243 400.791H365.234V502.729" stroke="#81DA80" stroke-width="5" stroke-linecap="round"/>
<path d="M597.765 283.938H484.191V420.102" stroke="#81DA80" stroke-width="5" stroke-linecap="round"/>
<path d="M577.695 194.997V303.007" stroke="#81DA80" stroke-width="5" stroke-linecap="round"/>
<path d="M577.695 157.309V166.494" stroke="#69AB67" stroke-width="5" stroke-linecap="round"/>
<path d="M355.833 223.523L215.615 239.652C199.395 226.657 203.32 207.258 207.31 199.183L304.778 187.5" stroke="#69AB67" stroke-width="5" stroke-linecap="round"/>
<path d="M403.953 219.629L452.077 215.004" stroke="#69AB67" stroke-width="5" stroke-linecap="round"/>
<path d="M487.254 209.893L518.766 207.702L561.028 188.546C555.947 183.152 558.734 178.347 560.85 176.628L518.766 166.81L352.166 180.684" stroke="#69AB67" stroke-width="5" stroke-linecap="round"/>
<path d="M192.209 199.385L206.493 197.847C196.587 220.041 207.942 235.139 215.191 241.014L198.52 243.452C184.586 226.482 188.178 207.491 192.209 199.385Z" fill="#56B059"/>
<path d="M562.547 189.613C557.246 184.08 560.225 177.49 562.433 175.362L582.563 180.33L562.547 189.613Z" fill="#56B059"/>
<path d="M519.225 166.81C513.967 173.485 506.607 190.938 519.225 207.348" stroke="#69AB67" stroke-width="5"/>
<path d="M398.129 130.842C402.318 128.263 433.836 130.749 439.963 91.1035C450.454 91.2264 456.158 82.633 448.154 78.9555C439.621 74.5552 440.261 66.4768 441.807 61.7169C444.265 55.4745 444.414 48.9206 443.883 47.5498" stroke="#69AB67" stroke-width="5" stroke-linecap="round"/>
<path d="M430.714 76.7876C431.905 76.8016 432.887 75.3654 432.908 73.5798C432.929 71.7942 431.981 70.3353 430.79 70.3214C429.6 70.3074 428.618 71.7437 428.597 73.5293C428.576 75.3149 429.524 76.7737 430.714 76.7876Z" fill="#56B059"/>
<path d="M424.861 63.7025C426.611 61.8313 431.138 59.0946 435.238 63.1147" stroke="#69AB67" stroke-width="5" stroke-linecap="round"/>
<path d="M412.973 100.133C416.19 105.083 419.721 106.488 426.581 103.294" stroke="#69AB67" stroke-width="5" stroke-linecap="round"/>
<path d="M386.639 65.437C385.894 67.0737 385.27 70.7893 388.734 72.5577" stroke="#69AB67" stroke-width="5" stroke-linecap="round"/>
<path d="M349.716 48.6299C345.634 70.9608 358.405 87.7707 367.663 100.693C377.551 95.3512 393.758 82.6477 387.542 81.2764C381.009 79.8354 374.119 62.0156 380.463 56.5645C387.906 50.169 394.616 59.8457 395.895 67.1832L401.89 56.8155C400.194 49.564 399.53 36.8437 410.433 43.9747C421.335 51.1057 437.328 49.2378 443.962 47.4124C457.042 38.0503 477.363 16.2128 454.01 3.75952C434.587 -6.59817 409.312 6.49676 393.884 18.2632C383.438 15.5055 355.281 18.1827 349.716 48.6299Z" fill="#56B059"/>
<path d="M368.389 99.1973C373.11 104.881 375.456 109.602 375.164 119.379" stroke="#69AB67" stroke-width="5" stroke-linecap="round"/>
<path d="M363.136 132.47C361.482 126.703 360.514 115.705 369.864 117.843C381.551 120.515 405.372 132.072 403.627 138.478" stroke="#69AB67" stroke-width="5" stroke-linecap="round"/>
<path d="M403.629 147.492C412.18 155.409 414.08 160.477 415.347 169.978" stroke="#69AB67" stroke-width="5" stroke-linecap="round"/>
<path d="M3 404.307C14.6158 403.25 41.9867 410.176 60.2706 445.799C60.7488 446.731 62.0974 446.755 62.5737 445.823C81.3281 409.108 104.346 371.865 177.101 416.707C178.22 417.397 179.687 416.148 179.133 414.957C167.329 389.569 160.95 341.154 215.956 317.134C217.059 316.653 217.01 315.013 215.855 314.675L201.627 310.517C200.322 310.135 200.464 308.346 201.818 308.224C216.475 306.903 237.152 307.764 230.034 316.412C221.722 326.508 219.678 332.892 221.704 343.433" stroke="#81DA80" stroke-width="5" stroke-linecap="round"/>
</svg>
