<svg width="97" height="96" viewBox="0 0 97 96" fill="none" xmlns="http://www.w3.org/2000/svg">
<g clip-path="url(#clip0_23_497)">
<path fill-rule="evenodd" clip-rule="evenodd" d="M0.5 48C0.5 35.2696 5.55713 23.0606 14.5589 14.0589C23.5606 5.05713 35.7696 0 48.5 0C61.2304 0 73.4394 5.05713 82.4411 14.0589C91.4429 23.0606 96.5 35.2696 96.5 48C96.5 60.7304 91.4429 72.9394 82.4411 81.9411C73.4394 90.9429 61.2304 96 48.5 96C35.7696 96 23.5606 90.9429 14.5589 81.9411C5.55713 72.9394 0.5 60.7304 0.5 48ZM45.7608 68.544L73.396 33.9968L68.404 30.0032L44.8392 59.4496L28.148 45.5424L24.052 50.4576L45.7608 68.5504V68.544Z" fill="#56B059"/>
</g>
<defs>
<clipPath id="clip0_23_497">
<rect width="96" height="96" fill="white" transform="translate(0.5)"/>
</clipPath>
</defs>
</svg>
