<svg width="478" height="524" viewBox="0 0 478 524" fill="none" xmlns="http://www.w3.org/2000/svg">
<g clip-path="url(#clip0_23_252)">
<path d="M36.4505 357.737C36.4505 357.737 27.4753 360.25 24.062 361.138C19.8132 362.244 14.1811 365.96 9.80098 373.393H9.80313C7.67948 376.992 5.51119 381.399 3.77965 385.41C2.04812 389.422 0.75704 392.839 0.390925 395.224C0.114909 397.018 -0.224082 399.17 0.201389 402.289C0.626871 405.408 1.75924 409.496 4.2462 415.745C6.7686 422.077 9.97256 427.7 12.969 432.082C15.9654 436.464 18.6023 439.529 20.6483 441.084C20.8842 441.263 21.1531 441.394 21.4396 441.47C21.7262 441.545 22.0249 441.563 22.3185 441.523C22.6122 441.483 22.895 441.386 23.1509 441.236C23.4068 441.087 23.6308 440.889 23.81 440.653C24.1717 440.176 24.3295 439.576 24.2486 438.984C24.1678 438.391 23.8549 437.855 23.3789 437.493C22.2684 436.649 19.5189 433.67 16.6931 429.537C13.8672 425.404 10.8124 420.04 8.43681 414.077C6.02688 408.021 5.02169 404.249 4.67109 401.678C4.32049 399.108 4.5685 397.74 4.85021 395.909C5.04076 394.668 6.25613 391.053 7.92027 387.197C9.5844 383.342 11.7024 379.048 13.6876 375.684C17.5272 369.168 22.4823 366.21 25.1972 365.503C28.7496 364.579 37.6669 362.079 37.6669 362.079C37.9523 362 38.2191 361.864 38.4521 361.681C38.6852 361.499 38.8799 361.272 39.0252 361.013C39.1704 360.755 39.2633 360.471 39.2987 360.177C39.334 359.882 39.3111 359.584 39.2311 359.299C39.0695 358.723 38.6858 358.235 38.1643 357.942C37.6429 357.649 37.0264 357.575 36.4505 357.737Z" fill="#56B059"/>
<path d="M237.049 80.4545C236.753 80.4473 236.458 80.4984 236.182 80.605C235.905 80.7116 235.653 80.8716 235.438 81.0758C235.224 81.2801 235.052 81.5245 234.932 81.7953C234.812 82.0661 234.746 82.3578 234.739 82.6539C234.431 95.2989 237.653 103.081 244.495 108.871C244.721 109.063 244.982 109.208 245.264 109.298C245.547 109.388 245.844 109.422 246.139 109.397C246.434 109.373 246.721 109.29 246.985 109.155C247.248 109.019 247.482 108.833 247.673 108.607C248.059 108.15 248.249 107.559 248.199 106.963C248.149 106.367 247.865 105.815 247.409 105.429C241.474 100.406 238.959 94.6648 239.248 82.7622C239.262 82.1646 239.039 81.5859 238.626 81.1532C238.214 80.7204 237.646 80.4692 237.049 80.4545Z" fill="#56B059"/>
<path d="M262.866 74.3062C262.269 74.3488 261.714 74.6265 261.322 75.0784C260.93 75.5303 260.734 76.1194 260.777 76.716C261.077 80.9175 260.473 83.8012 259.606 85.478C258.739 87.1548 257.8 87.6697 256.734 87.7711C254.602 87.9738 250.853 85.5576 249.084 79.9796C248.903 79.4096 248.503 78.9348 247.973 78.6594C247.442 78.3841 246.823 78.3308 246.253 78.5113C245.683 78.692 245.208 79.0918 244.933 79.6226C244.658 80.1533 244.604 80.7717 244.785 81.3417C246.983 88.2721 251.919 92.7599 257.161 92.2615C259.782 92.0123 262.203 90.2772 263.613 87.5503C265.024 84.8234 265.615 81.1511 265.276 76.3952C265.233 75.7987 264.955 75.2434 264.503 74.8517C264.051 74.4599 263.462 74.2637 262.866 74.3062Z" fill="#56B059"/>
<path d="M260.493 45.9394C260.13 46.0308 259.795 46.2112 259.519 46.4643C259.243 46.7173 259.035 47.0352 258.912 47.389C258.106 49.7168 255.162 54.3076 250.748 59.4022C246.333 64.4967 240.448 70.2443 233.7 75.5975C220.204 86.3038 203.24 95.3249 187.851 95.0627C187.528 95.0575 187.207 95.1218 186.911 95.2512C186.615 95.3807 186.35 95.5722 186.134 95.8129C185.918 96.0537 185.757 96.3381 185.661 96.6467C185.565 96.9553 185.536 97.2809 185.576 97.6016C185.576 97.6016 187.609 114.045 194.401 127.297C201.112 140.368 212.163 154.398 223.15 159.234C233.185 163.66 247.835 162.739 256.579 154.339C266.127 145.162 280.531 132.468 283.762 98.5117C285.238 82.9914 282.796 72.4257 278.455 64.5236C274.114 56.6215 268.01 51.4841 262.572 46.4684C262.296 46.2147 261.962 46.0333 261.599 45.941C261.236 45.8487 260.856 45.8481 260.493 45.9394ZM261.618 51.7857C266.419 56.1877 271.128 60.554 274.502 66.6959C278.378 73.7521 280.686 83.214 279.272 98.0848C276.147 130.925 263.167 141.754 253.455 151.088C246.502 157.767 233.214 158.743 224.971 155.108C216.038 151.177 204.78 137.633 198.417 125.239C192.945 114.564 191.006 102.674 190.515 99.4282C206.805 98.7272 223.29 89.6157 236.505 79.1319C243.483 73.5962 249.544 67.6795 254.157 62.3555C257.664 58.3078 259.996 54.8637 261.62 51.7857H261.618Z" fill="#56B059"/>
<path d="M223.66 83.0933C223.064 83.14 222.511 83.4213 222.123 83.8755C221.734 84.3297 221.542 84.9196 221.588 85.5155C221.677 86.6646 221.143 88.4211 220.09 89.304C219.038 90.1869 217.395 90.7629 213.85 89.2144C213.579 89.0958 213.287 89.0319 212.99 89.0262C212.694 89.0205 212.4 89.0731 212.124 89.1813C211.848 89.2894 211.596 89.4508 211.383 89.6562C211.17 89.8617 210.999 90.1072 210.88 90.3787C210.761 90.6501 210.698 90.9423 210.692 91.2385C210.686 91.5346 210.739 91.8291 210.847 92.1049C210.955 92.3807 211.116 92.6324 211.322 92.8458C211.527 93.0592 211.773 93.2302 212.044 93.3487C216.604 95.3406 220.55 94.8035 222.987 92.7593C225.425 90.715 226.283 87.7295 226.085 85.1677C226.062 84.8723 225.981 84.5842 225.847 84.32C225.712 84.0558 225.527 83.8208 225.302 83.6282C225.077 83.4355 224.816 83.2891 224.534 83.1973C224.253 83.1055 223.956 83.0702 223.66 83.0933Z" fill="#56B059"/>
<path d="M214.49 148.347C214.194 148.351 213.901 148.413 213.629 148.529C213.356 148.646 213.11 148.815 212.903 149.027C212.696 149.239 212.533 149.49 212.423 149.765C212.313 150.04 212.258 150.334 212.261 150.63C212.261 150.63 212.313 162.922 205.113 172.601C204.756 173.081 204.605 173.683 204.692 174.275C204.779 174.866 205.098 175.399 205.578 175.756C205.815 175.933 206.086 176.061 206.373 176.133C206.66 176.205 206.959 176.22 207.252 176.177C207.545 176.134 207.826 176.034 208.08 175.882C208.335 175.73 208.556 175.529 208.733 175.292C217.018 164.155 216.771 150.578 216.771 150.578C216.768 150.282 216.706 149.989 216.59 149.717C216.473 149.444 216.304 149.197 216.093 148.99C215.881 148.783 215.63 148.62 215.355 148.509C215.08 148.399 214.786 148.344 214.49 148.347Z" fill="#56B059"/>
<path d="M257.872 147.656C257.274 147.674 256.708 147.928 256.298 148.363C255.888 148.798 255.667 149.379 255.685 149.976C255.685 149.976 256.043 162.51 264.834 174.242C265.012 174.479 265.235 174.679 265.489 174.83C265.744 174.981 266.026 175.08 266.32 175.122C266.613 175.164 266.911 175.148 267.198 175.074C267.485 175.001 267.755 174.872 267.992 174.694C268.47 174.335 268.786 173.801 268.871 173.21C268.956 172.618 268.802 172.017 268.444 171.539C260.535 160.984 260.192 149.843 260.192 149.843C260.174 149.245 259.919 148.679 259.484 148.269C259.049 147.859 258.469 147.638 257.872 147.656Z" fill="#56B059"/>
<path d="M274.654 169.15C255.675 171.562 245.106 179.168 239.457 186.311C237.016 189.398 235.605 192.316 234.652 194.755C228.267 183.229 220.285 176.867 213.464 173.838C205.688 170.385 199.376 170.768 199.376 170.768C198.97 170.795 198.579 170.93 198.245 171.16C197.91 171.391 197.644 171.707 197.474 172.076C197.474 172.076 194.172 179.333 192.458 184.749C190.92 185.253 180.218 188.847 167.029 198.166C155.922 206.016 139.381 220.478 117.74 258.686C106.079 279.276 102.471 297.497 74.0905 329.624C66.9908 337.659 54.1525 348.231 35.998 357.918C35.574 358.144 35.2334 358.5 35.0259 358.934C34.8183 359.367 34.7546 359.856 34.8442 360.328C34.8442 360.328 36.7803 371.048 39.9304 377.492C40.0605 377.758 40.2418 377.996 40.4639 378.192C40.686 378.388 40.9446 378.538 41.2248 378.635C41.5051 378.731 41.8016 378.771 42.0973 378.752C42.3931 378.734 42.6822 378.657 42.9484 378.527C43.4855 378.264 43.8962 377.799 44.0903 377.233C44.2844 376.668 44.246 376.048 43.9835 375.511C41.7441 370.93 40.0779 363.171 39.6284 361.017C57.3578 351.347 70.1114 340.938 77.4709 332.609C106.288 299.987 110.378 280.84 121.666 260.909C143.064 223.13 158.92 209.419 169.631 201.849C183.235 192.236 194.891 188.619 194.891 188.619C195.249 188.508 195.573 188.31 195.834 188.043C196.096 187.776 196.287 187.448 196.391 187.088C197.548 183.06 200.137 177.211 200.971 175.346C202.448 175.346 206.079 175.493 211.633 177.96C218.498 181.009 226.953 187.405 233.209 201.428C233.411 201.88 233.756 202.253 234.192 202.489C234.627 202.726 235.128 202.812 235.617 202.735C236.107 202.659 236.557 202.423 236.899 202.065C237.241 201.706 237.456 201.245 237.51 200.753C237.51 200.753 238.06 195.352 242.996 189.111C247.785 183.053 256.726 176.361 273.719 173.875C274.161 174.724 274.568 175.541 275.654 177.454C277.185 180.15 278.904 183.1 280.634 184.887C282.102 186.403 283.758 186.77 286.124 187.674C288.49 188.577 291.438 189.666 294.676 191.164C301.153 194.16 308.743 198.767 314.842 206.616C327.428 222.809 343.464 251.171 358.523 281.074C368.943 301.759 372.813 329.96 430.646 364.023C430.192 366.119 428.332 374.396 424.906 380.886C424.627 381.415 424.569 382.034 424.746 382.605C424.922 383.176 425.319 383.654 425.847 383.934C426.376 384.213 426.995 384.27 427.566 384.094C428.137 383.917 428.615 383.521 428.895 382.992C433.29 374.665 435.447 363.394 435.447 363.394C435.538 362.933 435.482 362.456 435.289 362.029C435.096 361.601 434.774 361.245 434.368 361.009C375.914 327.034 373.604 300.982 362.553 279.045C347.432 249.019 331.412 220.584 318.404 203.848C311.717 195.243 303.428 190.244 296.57 187.072C293.14 185.485 290.058 184.348 287.732 183.46C285.407 182.573 283.711 181.583 283.873 181.75C282.991 180.839 281.052 177.823 279.578 175.227C278.104 172.632 276.948 170.364 276.948 170.364C276.737 169.95 276.404 169.611 275.993 169.394C275.583 169.177 275.115 169.091 274.654 169.15Z" fill="#56B059"/>
<path d="M20.9304 362.504C20.3382 362.584 19.8018 362.895 19.439 363.37C19.0762 363.845 18.9167 364.444 18.9955 365.037C18.9955 365.037 20.9063 378.88 27.5454 390.419C26.1561 391.828 22.909 395.237 20.7971 399.333C19.1437 402.539 18.3045 405.535 17.7542 407.933C17.2037 410.331 16.8118 412.226 16.592 412.679C16.739 412.375 16.4772 412.701 16.3962 412.692C16.3151 412.681 15.8144 412.723 15.1944 410.813C12.9073 403.749 13.2242 397.501 18.1124 382.901C18.2066 382.62 18.2445 382.323 18.224 382.028C18.2034 381.732 18.1249 381.443 17.9928 381.178C17.8607 380.913 17.6776 380.677 17.454 380.482C17.2305 380.288 16.9708 380.139 16.6898 380.045C16.1228 379.856 15.5037 379.899 14.9686 380.166C14.4335 380.433 14.0263 380.901 13.8364 381.468C8.83529 396.405 8.31606 404.213 10.9038 412.205C11.8467 415.112 13.7824 416.954 15.9213 417.18C18.0602 417.406 19.8037 416.398 20.6513 414.644C21.475 412.944 21.6407 411.166 22.151 408.943C22.6616 406.719 23.3895 404.143 24.8045 401.4C26.7933 397.542 31.8381 392.427 31.8381 392.427C32.2031 392.066 32.4341 391.592 32.4932 391.083C32.5523 390.573 32.4358 390.058 32.163 389.624C25.504 379.015 23.4652 364.439 23.4652 364.439C23.3856 363.847 23.0738 363.31 22.5984 362.947C22.1231 362.584 21.5231 362.425 20.9304 362.504Z" fill="#56B059"/>
<path d="M433.927 360.813C433.358 360.629 432.739 360.678 432.207 360.95C431.674 361.221 431.271 361.694 431.086 362.263C430.995 362.545 430.96 362.842 430.984 363.137C431.007 363.432 431.089 363.72 431.223 363.984C431.358 364.248 431.544 364.482 431.769 364.674C431.995 364.867 432.256 365.012 432.538 365.104C432.538 365.104 441.615 368.104 447.59 372.254C450.904 374.56 456.144 377.811 460.927 381.438C465.711 385.066 469.932 389.196 471.162 392.25C472.587 395.79 473.373 400.626 473.478 405.161C473.582 409.696 472.962 414.004 472.043 416.241C469.671 422.003 468.732 426.905 458.865 436.241C458.649 436.445 458.477 436.689 458.356 436.959C458.235 437.23 458.168 437.521 458.16 437.818C458.152 438.114 458.202 438.408 458.308 438.685C458.414 438.962 458.574 439.215 458.777 439.43C458.981 439.645 459.225 439.818 459.495 439.939C459.766 440.06 460.057 440.126 460.353 440.134C460.65 440.142 460.944 440.092 461.221 439.986C461.498 439.88 461.751 439.721 461.966 439.517C472.338 429.703 474.022 423.282 476.214 417.955C477.578 414.636 478.099 410.02 477.985 405.059C477.871 400.098 477.077 394.865 475.346 390.567C473.419 385.783 468.662 381.645 463.651 377.846C458.64 374.046 453.271 370.714 450.165 368.553C443.301 363.787 433.929 360.817 433.929 360.817L433.927 360.813Z" fill="#56B059"/>
<path d="M448.961 367.755C448.438 367.466 447.821 367.397 447.246 367.563C446.672 367.729 446.186 368.116 445.897 368.64C445.897 368.64 443.986 372.106 442.061 375.857C441.098 377.732 440.133 379.679 439.385 381.334C439.01 382.162 438.69 382.914 438.445 383.582C438.2 384.249 437.989 384.698 437.962 385.593C437.945 386.168 438.147 386.727 438.528 387.158C438.528 387.158 445.56 395.145 449.307 398.436C450.846 399.787 453.376 402.442 455.528 405.04C456.605 406.339 457.597 407.633 458.34 408.735C459.083 409.836 459.564 410.831 459.627 411.059C460.375 413.717 463.227 415.084 465.647 414.41C468.066 413.737 469.873 411.056 469.691 407.687C469.409 402.293 468.416 391.305 459.359 381.357C458.956 380.915 458.395 380.651 457.797 380.623C457.2 380.595 456.616 380.805 456.174 381.207C455.955 381.407 455.777 381.647 455.651 381.915C455.525 382.183 455.453 382.474 455.439 382.77C455.425 383.065 455.469 383.361 455.57 383.64C455.67 383.919 455.825 384.175 456.024 384.394C464.092 393.255 464.915 402.74 465.186 407.925C465.291 409.854 464.699 409.991 464.437 410.064C464.175 410.136 464.063 410.175 463.968 409.837C463.615 408.574 462.94 407.484 462.077 406.204C461.212 404.923 460.145 403.537 459.001 402.155C456.712 399.392 454.155 396.684 452.281 395.039C449.513 392.607 443.925 386.401 442.711 385.048C442.894 384.556 443.159 383.922 443.492 383.186C444.185 381.652 445.129 379.749 446.072 377.91C447.96 374.234 449.847 370.812 449.847 370.812C449.99 370.553 450.08 370.268 450.113 369.974C450.145 369.679 450.12 369.381 450.038 369.097C449.955 368.812 449.817 368.547 449.632 368.315C449.447 368.084 449.219 367.891 448.959 367.749L448.961 367.755Z" fill="#56B059"/>
<path d="M235.058 197.979C234.461 198.003 233.898 198.264 233.492 198.703C233.087 199.142 232.873 199.725 232.896 200.322C232.896 200.322 233.442 213.859 234.458 229.507C235.475 245.156 236.914 262.779 238.876 271.601C238.94 271.89 239.061 272.164 239.231 272.407C239.401 272.649 239.617 272.856 239.867 273.015C240.117 273.174 240.396 273.282 240.687 273.333C240.979 273.384 241.278 273.378 241.567 273.313C241.856 273.249 242.13 273.129 242.372 272.958C242.615 272.788 242.822 272.572 242.98 272.322C243.139 272.073 243.248 271.794 243.299 271.502C243.35 271.21 243.343 270.912 243.279 270.622C241.498 262.618 239.972 244.801 238.959 229.216C237.947 213.631 237.401 200.141 237.401 200.141C237.377 199.543 237.117 198.98 236.677 198.575C236.238 198.169 235.656 197.955 235.058 197.979Z" fill="#56B059"/>
<path fill-rule="evenodd" clip-rule="evenodd" d="M249.43 223.43C249.43 224.267 249.098 225.07 248.506 225.662C247.914 226.254 247.111 226.587 246.274 226.587C245.437 226.587 244.634 226.254 244.042 225.662C243.45 225.07 243.117 224.267 243.117 223.43C243.117 222.593 243.45 221.79 244.042 221.198C244.634 220.606 245.437 220.274 246.274 220.274C247.111 220.274 247.914 220.606 248.506 221.198C249.098 221.79 249.43 222.593 249.43 223.43Z" fill="#56B059"/>
<path fill-rule="evenodd" clip-rule="evenodd" d="M251.782 245.631C251.782 246.468 251.449 247.271 250.857 247.863C250.265 248.455 249.462 248.787 248.625 248.787C247.788 248.787 246.985 248.455 246.393 247.863C245.801 247.271 245.469 246.468 245.469 245.631C245.469 244.794 245.801 243.991 246.393 243.399C246.985 242.807 247.788 242.474 248.625 242.474C249.462 242.474 250.265 242.807 250.857 243.399C251.449 243.991 251.782 244.794 251.782 245.631Z" fill="#56B059"/>
<path fill-rule="evenodd" clip-rule="evenodd" d="M253.434 267.483C253.434 268.32 253.102 269.123 252.51 269.715C251.918 270.307 251.115 270.64 250.278 270.64C249.441 270.64 248.638 270.307 248.046 269.715C247.454 269.123 247.121 268.32 247.121 267.483C247.121 266.646 247.454 265.843 248.046 265.251C248.638 264.659 249.441 264.327 250.278 264.327C251.115 264.327 251.918 264.659 252.51 265.251C253.102 265.843 253.434 266.646 253.434 267.483Z" fill="#56B059"/>
<path d="M281.505 181.28C280.947 181.495 280.497 181.922 280.255 182.469C274.747 194.884 259.322 205.486 242.496 207.855C225.669 210.224 207.714 204.752 196.159 185.312C195.854 184.798 195.356 184.426 194.777 184.279C194.197 184.132 193.583 184.221 193.069 184.527C192.814 184.678 192.592 184.878 192.414 185.115C192.237 185.352 192.108 185.622 192.035 185.909C191.962 186.196 191.946 186.494 191.988 186.788C192.03 187.081 192.13 187.363 192.281 187.617C204.71 208.528 224.867 214.893 243.125 212.323C261.383 209.752 278.015 198.637 284.377 184.297C284.497 184.027 284.562 183.735 284.57 183.439C284.577 183.143 284.526 182.848 284.419 182.572C284.313 182.295 284.153 182.043 283.949 181.828C283.744 181.613 283.5 181.441 283.229 181.321C282.682 181.079 282.062 181.064 281.505 181.28Z" fill="#56B059"/>
<path d="M241.333 0.0110613C227.4 -0.225777 215.565 3.37946 207.396 7.0986C154.621 31.0937 147.27 65.8583 142.878 84.1222C140.532 93.8598 141.504 105.674 142.743 116.779C143.982 127.885 145.476 138.378 144.701 144.553C143.984 150.303 138.16 159.727 131.609 170.004C125.057 180.28 117.868 191.605 114.84 202.74C108.65 225.458 127.176 246.011 127.176 246.011C127.573 246.458 128.131 246.73 128.727 246.766C129.324 246.803 129.911 246.601 130.359 246.204C130.581 246.008 130.762 245.77 130.892 245.504C131.021 245.237 131.097 244.948 131.115 244.652C131.133 244.357 131.093 244.06 130.996 243.78C130.9 243.5 130.749 243.242 130.552 243.02C130.552 243.02 113.802 223.712 119.193 203.925C121.944 193.808 128.871 182.687 135.412 172.428C141.952 162.17 148.197 152.969 149.177 145.113C150.108 137.692 148.454 127.276 147.228 116.28C146.001 105.282 145.188 93.8028 147.267 85.1781C151.706 66.7168 157.812 34.5995 209.266 11.2056C224.642 4.2055 253.569 -2.63296 285.255 19.6657C295.741 27.0436 311.216 46.506 314.997 86.8131C315.562 92.8157 313.289 103.579 310.8 113.653C309.557 118.69 308.28 123.595 307.331 127.82C306.382 132.045 305.718 135.487 305.852 138.156C306.043 141.973 304.967 147.028 308.041 152.959C311.115 158.889 318.023 165.308 333.418 173.386C341.811 177.795 347.506 181.977 352.19 188.834C356.874 195.69 360.569 205.394 364.364 220.758C365.558 225.578 366.373 233.628 364.91 241.864C363.446 250.101 359.781 258.486 352.107 264.591C351.875 264.775 351.682 265.004 351.538 265.263C351.394 265.522 351.303 265.807 351.27 266.101C351.236 266.395 351.261 266.694 351.343 266.978C351.425 267.263 351.562 267.529 351.746 267.761C351.931 267.993 352.159 268.186 352.418 268.329C352.678 268.473 352.962 268.564 353.257 268.598C353.551 268.631 353.849 268.606 354.134 268.525C354.419 268.443 354.685 268.306 354.917 268.121C363.622 261.195 367.751 251.657 369.35 242.653C370.95 233.651 370.097 225.145 368.742 219.675C364.891 204.083 361.088 193.862 355.914 186.288C350.74 178.715 344.216 173.961 335.515 169.391C320.507 161.516 314.448 155.511 312.048 150.882C309.649 146.253 310.594 142.612 310.359 137.93C310.28 136.343 310.811 132.917 311.734 128.809C312.656 124.701 313.928 119.806 315.181 114.734C317.686 104.59 320.195 93.8898 319.49 86.3924C315.614 45.0805 299.676 24.2963 287.852 15.9773C271.298 4.32795 255.269 0.250089 241.337 0.013144L241.333 0.0110613Z" fill="#56B059"/>
<path fill-rule="evenodd" clip-rule="evenodd" d="M128.862 244.517C128.862 244.517 111.224 224.587 117.015 203.335C122.795 182.082 145.242 158.441 146.938 144.834C148.644 131.238 140.646 103.011 145.072 84.6488C149.487 66.2861 156.216 32.845 208.33 9.15051C224.188 1.93126 254.153 -4.97874 286.551 17.82C297.705 25.6684 313.413 45.7906 317.241 86.6002C318.51 100.1 307.676 129.532 308.102 138.041C308.529 146.54 304.061 155.434 334.464 171.386C351.558 180.365 358.906 189.259 366.552 220.215C369.1 230.505 369.889 253.325 353.51 266.356C340.585 241.617 327.447 219.159 316.623 205.233C303.837 188.779 284.866 186.017 282.253 183.319C279.64 180.621 274.938 171.386 274.938 171.386C271.962 171.77 269.2 172.271 266.641 172.89C258.291 161.747 257.939 149.91 257.939 149.91C267.217 140.963 278.648 128.444 281.517 98.2982C284.407 67.907 272.016 58.2457 261.042 48.126C256.947 59.9519 220.37 97.8716 187.813 97.3171C187.813 97.3171 189.882 113.536 196.408 126.269C200.898 135.013 207.563 144.248 214.515 150.603C214.515 150.603 214.665 163.538 206.923 173.946C202.508 172.826 199.522 173.018 199.522 173.018C199.522 173.018 195.683 181.378 194.222 186.465C194.222 186.465 182.214 190.197 168.33 200.008C159.02 206.587 145.882 217.794 128.862 244.517ZM185.851 97.7117C182.417 87.6452 175.016 87.8905 174.12 93.6276C173.235 99.3646 180.369 107.202 183.505 110.423C186.629 113.643 188.634 113.824 187.589 110.945C186.544 108.077 185.851 97.7117 185.851 97.7117ZM284.087 99.5778C283.746 101.529 284.194 103.385 287.308 101.316C290.432 99.2472 294.506 94.342 293.439 88.381C292.384 82.4201 291.232 78.9758 288.257 82.5908C283.575 88.2638 284.471 97.2958 284.087 99.5778Z" fill="#56B059"/>
<path d="M294.934 227.612C294.382 227.841 293.942 228.279 293.713 228.831C293.484 229.384 293.483 230.004 293.712 230.557C293.712 230.557 294.973 233.607 296.365 237.338C297.758 241.07 299.28 245.561 299.746 247.973C300.682 252.876 302.016 272.631 301.195 282.865C300.752 288.387 300.718 298.099 300.975 307.177C301.103 311.716 301.303 316.079 301.572 319.654C301.841 323.229 302.099 325.852 302.639 327.625C303.156 329.32 303.058 333.312 301.718 337.307C300.378 341.302 297.916 345.365 294.322 348C286.491 353.735 265.793 365.493 235.306 366.824C229.957 367.057 220.266 366.921 210.437 365.233C200.608 363.545 190.673 360.235 184.714 354.646C177.524 347.905 174.52 341.564 173.855 328.433C173.503 321.381 171.425 308.444 169.835 292.21C168.245 275.975 167.143 256.561 168.721 237.107C168.745 236.812 168.71 236.515 168.619 236.233C168.528 235.951 168.383 235.69 168.191 235.464C167.999 235.238 167.765 235.053 167.501 234.917C167.237 234.782 166.95 234.701 166.654 234.677C166.359 234.653 166.062 234.687 165.78 234.778C165.498 234.869 165.237 235.014 165.011 235.206C164.785 235.398 164.6 235.633 164.465 235.896C164.329 236.16 164.248 236.448 164.224 236.743C162.613 256.606 163.74 276.27 165.344 292.65C166.948 309.03 169.029 322.241 169.349 328.658C170.049 342.461 173.806 350.602 181.63 357.937C188.724 364.59 199.403 367.913 209.675 369.677C219.947 371.442 229.848 371.576 235.504 371.329C267.057 369.952 288.481 357.867 296.988 351.637C301.552 348.29 304.421 343.426 305.992 338.741C307.563 334.056 307.958 329.617 306.95 326.311C306.727 325.577 306.328 322.785 306.067 319.317C305.806 315.848 305.604 311.536 305.478 307.05C305.225 298.077 305.276 288.334 305.686 283.225C306.571 272.197 305.346 253.27 304.172 247.123C303.571 244.011 302.012 239.577 300.589 235.764C299.166 231.951 297.88 228.837 297.88 228.837C297.766 228.563 297.6 228.314 297.391 228.105C297.181 227.895 296.933 227.729 296.659 227.616C296.385 227.503 296.092 227.444 295.796 227.444C295.499 227.444 295.206 227.503 294.932 227.616L294.934 227.612Z" fill="#56B059"/>
<path d="M166.098 272.549C165.803 272.565 165.513 272.639 165.246 272.767C164.978 272.895 164.739 273.074 164.541 273.295C164.343 273.515 164.191 273.772 164.092 274.052C163.994 274.331 163.952 274.627 163.968 274.923C163.968 274.923 164.332 280.63 160.292 291.289C156.252 301.949 147.784 317.292 129.993 335.679C119.663 346.35 85.3105 374.799 50.5089 376.658C49.9118 376.691 49.352 376.958 48.9524 377.403C48.5529 377.848 48.3463 378.434 48.3782 379.031C48.3939 379.326 48.4677 379.616 48.5954 379.883C48.7231 380.151 48.9022 380.39 49.1225 380.588C49.3428 380.786 49.6 380.939 49.8793 381.038C50.1587 381.136 50.4547 381.179 50.7505 381.163C87.7942 379.184 122.257 350.156 133.234 338.817C151.401 320.042 160.235 304.164 164.507 292.891C168.78 281.618 168.469 274.684 168.469 274.684C168.453 274.388 168.379 274.098 168.252 273.831C168.124 273.563 167.945 273.324 167.724 273.126C167.504 272.928 167.247 272.775 166.968 272.677C166.688 272.578 166.392 272.535 166.096 272.551L166.098 272.549Z" fill="#56B059"/>
<path d="M302.748 279.16C302.191 279.375 301.741 279.802 301.499 280.349C301.256 280.895 301.24 281.515 301.455 282.073C301.455 282.073 314.721 316.553 347.039 350.324C357.407 361.142 377.06 380.512 419.138 385.691C419.731 385.764 420.33 385.599 420.801 385.231C421.272 384.863 421.578 384.323 421.652 383.729C421.688 383.435 421.666 383.137 421.587 382.852C421.508 382.566 421.373 382.299 421.191 382.066C421.008 381.832 420.782 381.637 420.524 381.491C420.266 381.345 419.982 381.252 419.688 381.216C378.778 376.18 360.574 357.928 350.297 347.205C318.61 314.094 305.664 280.455 305.664 280.455C305.558 280.178 305.398 279.925 305.194 279.711C304.99 279.496 304.746 279.323 304.475 279.203C304.204 279.083 303.912 279.017 303.616 279.01C303.32 279.002 303.025 279.053 302.748 279.16Z" fill="#56B059"/>
<path fill-rule="evenodd" clip-rule="evenodd" d="M182.46 488.991C144.731 487.316 93.2242 476.269 93.2242 476.269C44.0836 462.321 34.9574 445.515 31.3977 440.557C13.6582 415.86 28.8256 400.611 31.3977 397.678C43.2603 384.189 73.8638 384.989 81.0993 385.234C114.339 386.332 155.31 397.262 155.31 397.262C155.512 397.124 255.786 433.977 300.009 462.897C300.873 463.462 302.025 463.227 302.59 462.364C303.155 461.5 302.91 460.348 302.046 459.783C258.43 431.247 214.335 413.236 160.343 394.415C166.72 391.291 174.761 388.561 174.761 388.561C172.18 367.202 179.41 352.315 179.41 352.315C180.53 353.67 181.778 354.992 183.175 356.293C196.228 368.535 224.402 369.558 235.407 369.079C266.428 367.724 287.49 355.802 295.658 349.82C296.522 349.191 297.322 348.487 298.058 347.741C309.106 365.186 308.135 387.473 308.135 387.473C316.656 390.288 323.971 395.993 328.29 399.896C304.008 407.201 283.555 412.213 259.252 423.004C258.313 423.431 257.887 424.529 258.303 425.468C258.729 426.417 259.827 426.833 260.766 426.417C285.581 415.391 332.406 403.959 332.406 403.959C374.444 394.031 405.06 391.173 415.66 391.046C448.174 390.64 457.1 413.546 457.836 416.617C462.187 434.841 449.401 448.906 439.462 456.062C425.322 466.267 386.26 474.648 386.26 474.648C387.326 474.755 353.393 482.262 309.607 489.012C308.594 489.172 307.89 490.121 308.05 491.145C308.21 492.158 309.159 492.862 310.183 492.702C356.422 485.568 364.046 482.123 394.631 478.455C400.176 483.094 403.599 490.654 403.802 494.098C404.761 509.742 388.957 515.287 382.452 516.545C346.398 523.487 324.078 515.596 316.602 513.549C291.713 506.745 288.279 491.155 288.279 491.155C253.994 501.936 202.018 495.175 202.018 495.175C201.346 509.87 171.039 518.55 165.697 519.798C130.868 527.966 100.881 522.144 95.2291 519.659C68.0263 507.695 78.7735 489.471 81.7658 485.93C83.1798 484.256 85.8138 482.017 88.2004 480.108C113.272 485.408 142.673 490.953 182.29 492.723C183.324 492.766 184.199 491.966 184.241 490.942C184.284 489.918 183.484 489.044 182.46 488.991ZM242.413 381.587C238.819 381.587 235.908 384.498 235.908 388.092C235.908 391.675 238.819 394.586 242.413 394.586C245.996 394.586 248.918 391.675 248.918 388.092C248.918 384.498 245.996 381.587 242.413 381.587ZM242.413 385.319C243.938 385.319 245.186 386.556 245.186 388.092C245.186 389.617 243.938 390.854 242.413 390.854C240.878 390.854 239.641 389.617 239.641 388.092C239.641 386.556 240.878 385.319 242.413 385.319Z" fill="#56B059"/>
<path d="M222.588 124.454C222.376 124.247 222.125 124.083 221.85 123.973C221.575 123.863 221.281 123.807 220.985 123.811C220.689 123.814 220.396 123.876 220.123 123.992C219.851 124.109 219.604 124.278 219.397 124.49C218.979 124.917 218.747 125.493 218.754 126.091C218.761 126.689 219.004 127.26 219.432 127.678C226.743 134.829 235.88 136.939 245.446 132.587C245.991 132.339 246.414 131.886 246.624 131.326C246.834 130.765 246.812 130.145 246.565 129.601C246.317 129.056 245.863 128.633 245.303 128.423C244.743 128.213 244.122 128.234 243.578 128.482C235.378 132.213 228.969 130.697 222.588 124.454Z" fill="#56B059"/>
</g>
<defs>
<clipPath id="clip0_23_252">
<rect width="478" height="524" fill="white"/>
</clipPath>
</defs>
</svg>
