<svg width="50" height="48" viewBox="0 0 50 48" fill="none" xmlns="http://www.w3.org/2000/svg">
<g clip-path="url(#clip0_23_407)">
<path d="M24.9991 1.61401L49.1622 17L45.4157 19.386V32H41.3324V21.984L39.2907 23.284V35C39.2907 37.94 37.2205 40.23 34.6909 41.676C32.1081 43.152 28.6781 44 24.9991 44C21.32 44 17.8879 43.152 15.3073 41.676C12.7756 40.232 10.7074 37.94 10.7074 35V23.286L0.835938 17L24.9991 1.61401ZM14.7907 25.886V35C14.7907 35.926 15.4645 37.134 17.3653 38.22C19.2191 39.28 21.9121 40 24.9991 40C28.0861 40 30.779 39.28 32.6329 38.22C34.5357 37.134 35.2054 35.926 35.2054 35V25.886L24.997 32.386L14.7907 25.886ZM41.6693 17L24.9991 6.38401L8.32885 17L24.9991 27.614L41.6693 17Z" fill="white"/>
</g>
<defs>
<clipPath id="clip0_23_407">
<rect width="49" height="48" fill="white" transform="translate(0.5)"/>
</clipPath>
</defs>
</svg>
