<svg width="46" height="36" viewBox="0 0 46 36" fill="none" xmlns="http://www.w3.org/2000/svg">
<path d="M45.0549 1.50009C45.0384 1.22551 44.9219 0.966467 44.7274 0.771955C44.5329 0.577443 44.2738 0.460938 43.9992 0.444468C34.4367 -0.118032 26.7717 2.77322 23.4961 8.18072C21.3155 11.7826 21.3624 16.1832 23.5955 20.3682C22.1637 22.0074 21.1658 23.9794 20.693 26.1038L16.9805 22.3895C18.5086 19.3707 18.4992 16.2113 16.9205 13.6051C14.5186 9.63947 8.93675 7.51322 1.9805 7.92572C1.70561 7.94223 1.44632 8.059 1.25176 8.2539C1.05721 8.4488 0.9409 8.7083 0.924872 8.98322C0.516122 15.9376 2.63862 21.5195 6.60425 23.9213C7.8958 24.7107 9.38058 25.1273 10.8942 25.1251C12.4618 25.1091 14.0036 24.7237 15.3942 24.0001L20.3742 28.9651V34.5001C20.3742 34.7985 20.4928 35.0846 20.7038 35.2956C20.9147 35.5066 21.2009 35.6251 21.4992 35.6251C21.7976 35.6251 22.0838 35.5066 22.2947 35.2956C22.5057 35.0846 22.6242 34.7985 22.6242 34.5001V28.9707C22.6167 26.3935 23.5319 23.8986 25.2042 21.9376C27.3061 23.0495 29.4642 23.6082 31.5455 23.6082C33.5812 23.6149 35.5791 23.0588 37.3186 22.0013C42.7261 18.7295 45.6174 11.0626 45.0549 1.50009ZM7.7705 21.9957C4.71237 20.1451 3.00987 15.7501 3.12425 10.1251C8.74925 10.0032 13.1386 11.7076 14.9892 14.7657C16.0542 16.5226 16.1442 18.587 15.278 20.6888L10.2942 15.7032C10.0832 15.4921 9.79684 15.3735 9.49831 15.3735C9.19978 15.3735 8.91347 15.4921 8.70237 15.7032C8.49128 15.9143 8.37268 16.2006 8.37268 16.4992C8.37268 16.7977 8.49128 17.084 8.70237 17.2951L13.6936 22.2845C11.5917 23.1507 9.52737 23.0626 7.7705 21.9957ZM36.1542 20.0795C33.3905 21.752 30.128 21.8007 26.8411 20.2482L37.2961 9.79509C37.4006 9.69057 37.4836 9.56648 37.5401 9.42991C37.5967 9.29335 37.6258 9.14698 37.6258 8.99916C37.6258 8.85134 37.5967 8.70496 37.5401 8.5684C37.4836 8.43183 37.4006 8.30774 37.2961 8.20322C37.1916 8.09869 37.0675 8.01578 36.9309 7.95921C36.7944 7.90265 36.648 7.87353 36.5002 7.87353C36.3524 7.87353 36.206 7.90265 36.0694 7.95921C35.9329 8.01578 35.8088 8.09869 35.7042 8.20322L25.2492 18.6582C23.6967 15.3713 23.7492 12.1088 25.418 9.34697C28.1405 4.84697 34.6167 2.37572 42.8555 2.64384C43.1236 10.8751 40.6505 17.3551 36.1542 20.0795Z" fill="white"/>
</svg>
